# File created by Blade
# Date/Time:  Tue Jan 27 17:09:01 2015
#---------------------------------------------------------
:version 1.10
:name HOM
:units
  mass 1.0
  length 1.000000
  angle deg
:documentation
     Acclaim Skeleton File
:root
   axis xyz
   order TX TY TZ RX RY RZ
   position 0.000000 0.000000 0.000000
   orientation 0 0 0
:bonedata
   begin
      id 1
      name Spine_dum
      direction 0.000000 1.000000 0.000000
      length 7.539951
      axis 0.0 0.0 0.0 xyz
   end
   begin
      id 2
      name LeftUpLeg_dum
      direction 1.000000 0.000000 0.000000
      length 3.345476
      axis 0.0 0.0 0.0 xyz
   end
   begin
      id 3
      name RightUpLeg_dum
      direction -1.000000 0.000000 0.000000
      length 3.345476
      axis 0.0 0.0 0.0 xyz
   end
   begin
      id 4
      name Spine
      direction 0.000000 1.000000 0.000000
      length 0.000000
      axis 0.0 0.0 0.0 xyz
      dof rx ry rz
   end
   begin
      id 5
      name Spine_dum1
      direction 0.000000 1.000000 0.000000
      length 15.093809
      axis 0.0 0.0 0.0 xyz
   end
   begin
      id 6
      name Spine_dum2
      direction 0.000000 1.000000 0.000000
      length 9.738928
      axis 0.0 0.0 0.0 xyz
   end
   begin
      id 7
      name Spine_dum3
      direction 0.000000 1.000000 0.000000
      length 9.738928
      axis 0.0 0.0 0.0 xyz
   end
   begin
      id 8
      name Head
      direction 0.000000 1.000000 0.000000
      length 4.527550
      axis 0.0 0.0 0.0 xyz
      dof rx ry rz
   end
   begin
      id 9
      name LeftShoulder
      direction 1.000000 0.000000 0.000000
      length 7.084015
      axis 0.0 0.0 -90.0 xyz
      dof rx ry rz
   end
   begin
      id 10
      name LeftArm
      direction 1.000000 0.000000 0.000000
      length 10.259319
      axis 0.0 0.0 -90.0 xyz
      dof rx ry rz
   end
   begin
      id 11
      name LeftForeArm
      direction 1.000000 0.000000 0.000000
      length 9.896984
      axis 0.0 0.0 -90.0 xyz
      dof ry rz rx
   end
   begin
      id 12
      name LeftHand
      direction 0.000000 0.000000 0.000000
      length 0.000000
      axis 0.0 0.0 -90.0 xyz
      dof rx ry rz
   end
   begin
      id 13
      name LeftHand_dum1
      direction 0.000000 0.000000 0.000000
      length 0.000000
      axis 0.0 0.0 -90.0 xyz
   end
   begin
      id 14
      name LeftHand_dum2
      direction 1.000000 0.000000 0.000000
      length 3.937000
      axis 0.0 0.0 -90.0 xyz
   end
   begin
      id 15
      name LeftHandThumb1
      direction 0.000000 0.000000 1.000000
      length 3.937000
      axis 0.0 0.0 -90.0 xyz
      dof rx rz ry
   end
   begin
      id 16
      name RightShoulder
      direction -1.000000 0.000000 0.000000
      length 7.084015
      axis 0.0 0.0 90.0 xyz
      dof rx ry rz
   end
   begin
      id 17
      name RightArm
      direction -1.000000 0.000000 0.000000
      length 10.259319
      axis 0.0 0.0 90.0 xyz
      dof rx ry rz
   end
   begin
      id 18
      name RightForeArm
      direction -1.000000 0.000000 0.000000
      length 9.896984
      axis 0.0 0.0 90.0 xyz
      dof ry rz rx
   end
   begin
      id 19
      name RightHand
      direction 0.000000 0.000000 0.000000
      length 0.000000
      axis 0.0 0.0 90.0 xyz
      dof rx ry rz
   end
   begin
      id 20
      name RightHand_dum1
      direction 0.000000 0.000000 0.000000
      length 0.000000
      axis 0.0 0.0 90.0 xyz
   end
   begin
      id 21
      name RightHand_dum2
      direction -1.000000 0.000000 0.000000
      length 3.937000
      axis 0.0 0.0 90.0 xyz
   end
   begin
      id 22
      name RightHandThumb1
      direction 0.000000 0.000000 1.000000
      length 3.937000
      axis 0.0 0.0 90.0 xyz
      dof rx rz ry
   end
   begin
      id 23
      name LeftUpLeg
      direction 0.000000 -1.000000 0.000000
      length 19.114733
      axis 0.0 0.0 0.0 xyz
      dof rx ry rz
   end
   begin
      id 24
      name LeftLeg
      direction 0.000000 -1.000000 0.000000
      length 16.045604
      axis 0.0 0.0 0.0 xyz
      dof rx ry rz
   end
   begin
      id 25
      name LeftFoot
      direction 0.000000 -0.258819 0.965926
      length 5.543155
      axis 15.0 0.0 0.0 xyz
      dof rx ry rz
   end
   begin
      id 26
      name LeftToeBase
      direction 0.000000 0.000000 1.000000
      length 2.952750
      axis 0.0 0.0 0.0 xyz
      dof rx ry rz
   end
   begin
      id 27
      name RightUpLeg
      direction 0.000000 -1.000000 0.000000
      length 19.114733
      axis 0.0 0.0 0.0 xyz
      dof rx ry rz
   end
   begin
      id 28
      name RightLeg
      direction 0.000000 -1.000000 0.000000
      length 16.045604
      axis 0.0 0.0 0.0 xyz
      dof rx ry rz
   end
   begin
      id 29
      name RightFoot
      direction 0.000000 -0.258819 0.965926
      length 5.543155
      axis 15.0 0.0 0.0 xyz
      dof rx ry rz
   end
   begin
      id 30
      name RightToeBase
      direction 0.000000 0.000000 1.000000
      length 2.952750
      axis 0.0 0.0 0.0 xyz
      dof rx ry rz
   end
:hierarchy
   begin
      root Spine_dum LeftUpLeg_dum RightUpLeg_dum
      Spine_dum Spine
      LeftUpLeg_dum LeftUpLeg
      RightUpLeg_dum RightUpLeg
      Spine Spine_dum1 Spine_dum2 Spine_dum3
      Spine_dum1 Head
      Spine_dum2 LeftShoulder
      Spine_dum3 RightShoulder
      LeftShoulder LeftArm
      LeftArm LeftForeArm
      LeftForeArm LeftHand
      LeftHand LeftHand_dum1 LeftHand_dum2
      LeftHand_dum1 LeftHandThumb1
      RightShoulder RightArm
      RightArm RightForeArm
      RightForeArm RightHand
      RightHand RightHand_dum1 RightHand_dum2
      RightHand_dum1 RightHandThumb1
      LeftUpLeg LeftLeg
      LeftLeg LeftFoot
      LeftFoot LeftToeBase
      RightUpLeg RightLeg
      RightLeg RightFoot
      RightFoot RightToeBase
   end

# File created by Blade
# Date/Time:  Tue Jan 27 17:08:52 2015
# Frame Rate: 120.000 fps
#------------------------------------------------------
:FULLY-SPECIFIED
:DEGREES
2969
root -0.028242 36.658510 -1.192802 8.336058 -42.454443 -15.542953
Spine 11.712930 17.022172 7.067496
Head -8.495994 -3.601631 3.169716
LeftShoulder -7.769002 -5.470158 5.296947
LeftArm -24.476513 -38.857468 -35.077938
LeftForeArm 13.318594 -0.000000 117.910411
LeftHand -23.701277 -0.000000 34.354465
LeftHandThumb1 -26.253704 0.000000 33.147579
RightShoulder 2.702738 -20.807681 -4.887763
RightArm 25.693504 -18.656292 59.351564
RightForeArm 187.870953 -0.000000 65.573678
RightHand 0.573877 -0.000000 12.606695
RightHandThumb1 -24.326973 -0.000000 -32.862282
LeftUpLeg -12.032469 15.988671 5.787583
LeftLeg 28.198551 -0.000000 -0.000000
LeftFoot -25.826219 16.372239 -10.776882
LeftToeBase 12.784174 -0.000000 -0.000000
RightUpLeg -66.810193 -32.254212 8.258812
RightLeg 79.072804 -0.000000 -0.000000
RightFoot 1.883903 -11.246110 11.366074
RightToeBase 6.674759 -0.000000 -0.000000
2970
root -0.047593 36.670143 -1.188379 8.384158 -42.381951 -15.403966
Spine 11.414471 17.002551 6.815995
Head -8.330392 -3.864914 3.391089
LeftShoulder -7.763138 -5.429909 5.365409
LeftArm -24.432310 -38.729810 -35.140902
LeftForeArm 13.255913 -0.000000 117.872584
LeftHand -23.523891 0.000000 34.523686
LeftHandThumb1 -26.253704 0.000000 33.147579
RightShoulder 2.587960 -20.905694 -4.759328
RightArm 25.677499 -18.739109 59.326718
RightForeArm 187.910876 -0.000000 65.458150
RightHand 0.564875 -0.000000 12.576198
RightHandThumb1 -24.326973 -0.000000 -32.862282
LeftUpLeg -12.056500 15.934976 5.677314
LeftLeg 27.956066 -0.000000 -0.000000
LeftFoot -25.735553 16.351826 -10.796530
LeftToeBase 12.732785 -0.000000 -0.000000
RightUpLeg -66.172066 -32.204180 8.090436
RightLeg 78.561483 -0.000000 -0.000000
RightFoot 1.554683 -11.377500 11.605834
RightToeBase 6.799848 -0.000000 -0.000000
2971
root -0.064418 36.680008 -1.182995 8.432494 -42.299579 -15.239822
Spine 11.086860 16.947698 6.551110
Head -8.123173 -4.187883 3.571511
LeftShoulder -7.765450 -5.467063 5.471193
LeftArm -24.465649 -38.621651 -35.222042
LeftForeArm 13.346566 -0.000000 117.832904
LeftHand -23.438932 -0.000000 34.551079
LeftHandThumb1 -26.253704 0.000000 33.147579
RightShoulder 2.516095 -20.967807 -4.674341
RightArm 25.595804 -18.854597 59.341232
RightForeArm 187.970435 0.000000 65.360675
RightHand 0.566395 -0.000000 12.584245
RightHandThumb1 -24.326973 -0.000000 -32.862282
LeftUpLeg -12.111008 15.884031 5.539210
LeftLeg 27.734911 -0.000000 -0.000000
LeftFoot -25.647569 16.278380 -10.850113
LeftToeBase 12.662240 -0.000000 -0.000000
RightUpLeg -65.548918 -32.173711 7.932789
RightLeg 78.039047 -0.000000 -0.000000
RightFoot 1.208745 -11.533178 11.632997
RightToeBase 6.506935 -0.000000 -0.000000
2972
root -0.084144 36.689505 -1.175600 8.463976 -42.224203 -15.057379
Spine 10.748514 16.894982 6.254630
Head -7.914637 -4.472147 3.776036
LeftShoulder -7.808748 -5.300718 5.536266
LeftArm -24.304758 -38.658452 -35.367211
LeftForeArm 13.410715 0.000000 117.805106
LeftHand -23.329983 -0.000000 34.460129
LeftHandThumb1 -26.253704 0.000000 33.147579
RightShoulder 2.447708 -21.056784 -4.564498
RightArm 25.539132 -18.959881 59.329569
RightForeArm 188.021979 0.000000 65.267684
RightHand 0.533748 -0.000000 12.499437
RightHandThumb1 -24.326973 -0.000000 -32.862282
LeftUpLeg -12.148879 15.860077 5.393732
LeftLeg 27.501039 -0.000000 -0.000000
LeftFoot -25.531382 16.241291 -10.808793
LeftToeBase 12.615085 -0.000000 -0.000000
RightUpLeg -64.912334 -32.159084 7.783818
RightLeg 77.495925 -0.000000 -0.000000
RightFoot 0.727827 -11.722762 11.695767
RightToeBase 6.704724 -0.000000 -0.000000
2973
root -0.104422 36.699234 -1.167781 8.512741 -42.149041 -14.892195
Spine 10.409077 16.866935 5.984915
Head -7.731624 -4.840780 3.949331
LeftShoulder -7.833768 -5.255222 5.611615
LeftArm -24.230350 -38.611537 -35.472354
LeftForeArm 13.487942 -0.000000 117.802453
LeftHand -23.274322 -0.000000 34.339783
LeftHandThumb1 -26.253704 0.000000 33.147579
RightShoulder 2.338716 -21.161200 -4.465488
RightArm 25.498099 -19.088624 59.310153
RightForeArm 188.112768 -0.000000 65.171608
RightHand 0.556102 -0.000000 12.489879
RightHandThumb1 -24.326973 -0.000000 -32.862282
LeftUpLeg -12.193000 15.841420 5.262014
LeftLeg 27.272466 -0.000000 -0.000000
LeftFoot -25.437451 16.189835 -10.804732
LeftToeBase 12.614751 -0.000000 -0.000000
RightUpLeg -64.253683 -32.134287 7.638784
RightLeg 76.925616 -0.000000 -0.000000
RightFoot 0.260162 -11.880189 11.852682
RightToeBase 6.647109 -0.000000 -0.000000
2974
root -0.124618 36.707811 -1.158135 8.560657 -42.080251 -14.720576
Spine 10.058147 16.857928 5.716006
Head -7.536042 -5.326725 4.110307
LeftShoulder -7.835655 -5.225119 5.694593
LeftArm -24.161669 -38.582807 -35.595601
LeftForeArm 13.631060 -0.000000 117.796637
LeftHand -23.275821 -0.000000 34.238539
LeftHandThumb1 -26.253704 0.000000 33.147579
RightShoulder 2.210515 -21.312544 -4.367438
RightArm 25.496079 -19.219332 59.262920
RightForeArm 188.171552 -0.000000 65.097504
RightHand 0.566561 -0.000000 12.474524
RightHandThumb1 -24.326973 -0.000000 -32.862282
LeftUpLeg -12.246898 15.865071 5.120441
LeftLeg 27.063663 -0.000000 -0.000000
LeftFoot -25.327519 16.122544 -10.758952
LeftToeBase 12.549904 -0.000000 -0.000000
RightUpLeg -63.602151 -32.121780 7.521596
RightLeg 76.364020 -0.000000 -0.000000
RightFoot -0.179700 -12.072890 11.863162
RightToeBase 6.353636 -0.000000 -0.000000
2975
root -0.144354 36.715338 -1.147705 8.584284 -42.027907 -14.526097
Spine 9.733874 16.835766 5.429329
Head -7.392635 -5.906971 4.255669
LeftShoulder -7.876041 -5.216033 5.760645
LeftArm -24.098560 -38.536783 -35.682109
LeftForeArm 13.777469 -0.000000 117.785227
LeftHand -23.237188 0.000000 34.145338
LeftHandThumb1 -26.253704 0.000000 33.147579
RightShoulder 2.137412 -21.378188 -4.306919
RightArm 25.386582 -19.370091 59.281663
RightForeArm 188.277875 -0.000000 65.048046
RightHand 0.603604 -0.000000 12.428491
RightHandThumb1 -24.326973 -0.000000 -32.862282
LeftUpLeg -12.284244 15.918128 4.962707
LeftLeg 26.847739 -0.000000 -0.000000
LeftFoot -25.206428 16.064175 -10.649462
LeftToeBase 12.517034 -0.000000 -0.000000
RightUpLeg -62.914776 -32.091928 7.360486
RightLeg 75.789058 -0.000000 -0.000000
RightFoot -0.667889 -12.228183 11.977615
RightToeBase 6.280313 -0.000000 -0.000000
